# xmcd
#
# Track frame offsets:
#	150
#	42492
#	89464
#	112831
#	159972
#	219802
#	256105
#	276803
#	300540
#	345247
#
# Disc length: 4797 seconds
#
# Revision: 1
# Processed by: cddbd v1.5.2PL0 Copyright (c) Steve Scherf et al.
# Submitted via: audiograbber 1.83.01
#
DISCID=7612bb0a
DTITLE=Grateful Dead - 77-10-12 Manor Downs, Austin TX
DYEAR=1900
DGENRE=
TTITLE0=Estimated Prophet
TTITLE1=He's Gone
TTITLE2=Drums
TTITLE3=The Other One
TTITLE4=Black Peter
TTITLE5=Truckin
TTITLE6=Nobody's Fault But Mine
TTITLE7=Iko Iko
TTITLE8=Sugar Magnolia
TTITLE9=Johnny B Goode
EXTD=
EXTT0=
EXTT1=
EXTT2=
EXTT3=
EXTT4=
EXTT5=
EXTT6=
EXTT7=
EXTT8=
EXTT9=
PLAYORDER=
